<?xml version="1.0" encoding="UTF-8"?>
<svg id="Layer_10" data-name="Layer 10" xmlns="http://www.w3.org/2000/svg" viewBox="0 0 1920 1920">
  <defs>
    <style>
      .cls-1 {
        fill: #447177;
      }
    </style>
  </defs>
  <path class="cls-1" d="m1302.053,1052.405c12.373-.667,21.913-6.232,30.447-13.941,10.524-9.507,20.737-19.294,29.655-30.397,3.306-4.117,7.093-7.996,11.231-11.261,6.311-4.98,10.221-11.226,12.623-18.769,6.993-21.963,12.764-44.232,17.703-66.745,6.243-28.46,13.031-56.789,22.541-84.386,5.6-16.25,12.299-32.053,21.569-46.513,15.812-24.667,36.921-42.887,65.84-50.575,6.04-1.606,12.351-2.447,18.594-2.972,11.632-.978,22.214,2.738,31.911,8.808,14.745,9.23,21.336,22.669,19.494,40.047-1.194,11.264-5.078,21.409-13.021,29.738-4.059,4.256-8.847,7.2-14.809,7.867-6.598.737-10.704-1.614-12.72-7.894-1.192-3.713-1.68-7.668-2.309-11.543-.693-4.27-.807-8.665-1.836-12.842-2.939-11.933-11.21-15.364-21.879-9.332-7.559,4.273-13.258,10.41-17.774,17.75-8.935,14.523-15.796,29.986-20.084,46.463-11.154,42.858-22.086,85.774-33.002,128.693-2.571,10.107-4.974,20.27-7.017,30.495-2.244,11.23.875,14.912,12.241,15.209,4.919.129,9.849-.093,14.767.06,24.062.748,55.324-15.815,65.014-46.066,7.33-22.882,14.081-45.911,19.09-69.427,1.024-4.81,2.108-9.612,3.357-14.367,2.039-7.764,7.371-11.929,15.145-12.903,8.491-1.065,16.918-.575,25.089,2.201,11.501,3.908,16.998,12.787,14.769,24.803-1.541,8.308-3.713,16.512-5.886,24.687-6.724,25.296-13.643,50.54-20.355,75.839-2.179,8.212-3.285,16.605-2.833,25.145.439,8.311,2.767,15.853,8.697,22.007,5.304,5.504,11.646,7.105,18.894,5.006,7.349-2.129,13.608-6.303,19.082-11.458,15.407-14.508,27.494-31.399,34.792-51.366,11.303-30.924,19.942-62.619,26.63-94.852.639-3.082,1.332-6.161,2.192-9.187,1.951-6.862,6.58-11.215,13.405-12.817,11.69-2.743,22.73-.436,32.908,5.62,5.353,3.185,7.82,8.391,6.968,14.6-.72,5.245-1.993,10.429-3.251,15.584-8.259,33.84-16.685,67.64-24.848,101.503-6.272,26.017-11.747,52.236-18.533,78.115-3.783,14.426-8.798,28.641-14.536,42.418-9.837,23.619-24.748,43.797-44.651,60.073-7.142,5.84-13.851,12.258-22.521,16.041-18.807,8.205-37.963,9.685-57.597,3.481-9.411-2.974-17.503-8.283-24.211-15.346-11.12-11.708-13.137-25.714-8.085-40.614,3.554-10.481,10.194-19.04,19.274-25.532,4.551-3.254,9.541-5.812,15.198-5.897,3.436-.052,7.175.433,10.279,1.805,8.521,3.768,10.459,9.84,6.453,18.296-1.684,3.555-3.747,6.959-5.13,10.623-3.951,10.461,1.641,20.153,12.63,22.105,6.239,1.108,12.16-.062,17.664-3.157,8.648-4.862,15.014-11.984,19.988-20.452,9.943-16.927,16.732-35.184,22.187-53.929,2.742-9.421,4.634-19.095,6.75-28.69.457-2.072.501-4.329.246-6.441-.308-2.546-2.011-3.414-4.243-2.138-2.023,1.158-3.838,2.74-5.582,4.315-9.794,8.848-19.653,17.516-31.385,23.91-14.507,7.906-29.222,8.78-44.312,2.461-4.302-1.802-8.486-4.221-12.19-7.056-17.414-13.327-26.654-31.158-28.355-52.964-.226-2.901.297-6.393-3-7.756-3.268-1.351-5.518,1.368-7.655,3.306-14.195,12.875-31.179,18.722-49.987,20.079-2.157.156-4.342.234-6.454.65-5.635,1.111-7.762,3.876-7.136,9.594.6,5.474,1.69,10.894,2.298,16.368,2.12,19.085,2.4,38.225-1.681,57.036-6.116,28.19-16.858,54.104-39.529,73.529-7.783,6.669-16.449,11.495-26.551,13.449-11.173,2.161-20.227-1.548-26.881-10.657-5.504-7.534-7.632-16.35-8.43-25.485-1.697-19.433,1.032-38.486,5.113-57.42,5.016-23.275,9.977-46.562,14.899-69.857.442-2.092.74-4.309.546-6.417-.257-2.798-2.307-3.755-4.615-2.124-2.061,1.456-3.896,3.319-5.56,5.238-9.56,11.032-19.566,21.615-31.291,30.388-13.751,10.289-28.677,17.9-46.114,19.697-30.995,3.194-58.886-20.452-61.255-51.543-1.266-16.625,1.639-32.442,6.623-48.166,5.35-16.88,10.227-33.912,15.145-50.926,4.261-14.741,8.426-29.513,12.35-44.347,1.404-5.308,1.921-10.847,2.946-16.26,1.809-9.554,6.704-14.406,16.234-16.302,7.867-1.565,15.74-1.177,23.453.6,13.173,3.035,19.472,12.438,16.139,25.511-5.25,20.589-11.314,40.971-17.105,61.421-6.223,21.977-12.31,43.992-15.655,66.63-.652,4.415-.611,9.075-.013,13.503,1.324,9.8,6.875,14.899,16.725,16.177,1.165.151,2.356.107,4.084.142m102.525,64.47c-2.148,11.392-4.537,22.746-6.332,34.193-.78,4.978-.957,10.229-.29,15.207.747,5.577,5.674,7.281,10.092,3.808,2.256-1.774,4.128-4.213,5.696-6.658,10.264-16.009,15.831-33.729,18.417-52.424,2.2-15.903,1.959-31.755-2.197-47.387-.502-1.887-1.061-3.821-1.986-5.52-1.654-3.036-4.133-3.21-5.804-.25-1.527,2.707-2.67,5.704-3.529,8.703-4.705,16.432-9.27,32.904-14.068,50.328Z"/>
  <path class="cls-1" d="m431.258,987.824c-3.825-3.4-7.155-6.826-11.03-9.445-12.792-8.646-26.762-14.859-41.332-19.979-19.493-6.85-39.127-13.486-58.062-21.69-21.111-9.147-41.943-19.283-59.311-34.911-26.67-23.997-34.524-52.657-24.427-88.395,4.94-17.485,14.402-32.251,27.398-44.824,4.525-4.378,9.021-8.8,13.749-12.953,13.637-11.982,29.407-19.93,46.401-26.358,38.501-14.563,78.037-18.283,118.516-13.18,18.686,2.355,36.5,7.836,52.169,19.073,21.621,15.505,28.851,38.311,20.184,63.02-7.041,20.073-21.215,34.764-40.869,43.613-7.527,3.389-15.522,4.414-23.692,3.28-9.965-1.383-13.862-8.109-10.04-17.423,1.181-2.877,2.952-5.561,4.749-8.126,2.595-3.706,5.812-7.013,8.118-10.876,2.801-4.692,5.563-9.581,7.219-14.746,3.646-11.376-.698-20.673-11.498-25.861-7.363-3.537-15.268-5.264-23.356-5.934-26.337-2.181-51.969,1.434-76.485,11.12-17.4,6.874-32.115,17.659-41.071,34.732-6.811,12.984-8.24,26.437-.388,39.428,3.404,5.633,7.836,10.986,12.845,15.235,9.911,8.407,20.825,15.259,33.2,19.99,27.941,10.684,55.665,21.943,83.367,33.237,14.693,5.99,28.419,14.27,40.08,24.712,29.508,26.424,37.662,60.733,20.381,96.694-12.225,25.442-31.61,43.915-56.519,56.692-25.323,12.989-52.292,20.603-80.546,23.761-28.983,3.24-57.922,2.557-86.377-3.65-23.667-5.163-46.789-12.459-67.532-25.7-11.563-7.381-20.329-17.345-27.13-29.076-7.709-13.298-7.952-27.506-3.452-41.723,7.028-22.201,21.378-38.14,42.578-47.99,9.017-4.189,18.282-4.521,27.711-2.625,5.975,1.202,10.878,4.572,14.433,9.601,4.209,5.953,3.472,12.084-2.06,16.833-1.929,1.656-4.158,2.975-6.313,4.35-6.572,4.193-12.024,9.528-16.332,16.009-7.051,10.606-6.592,22.427,1.514,32.252,7.983,9.677,18.426,16.116,30.064,20.155,22.181,7.698,45.163,10.305,68.621,9.578,20.108-.623,39.322-5.58,58.371-11.328,13.261-4.002,24.675-11.398,34.169-21.425,11.679-12.335,19.917-31.022,3.988-52.432-.587-.79-1.172-1.581-2.004-2.716Z"/>
  <path class="cls-1" d="m736.131,880.245c17.727,13.791,26.946,32.171,30.429,53.391,2.597,15.824,1.795,31.801-1.419,47.582-.157.771-.294,1.548-.397,2.328-.934,7.105,2.458,11.084,9.657,10.565,12.686-.915,24.174-5.211,34.069-13.353,2.429-1.999,4.57-4.347,7.003-6.34,4.575-3.748,7.535-8.503,9.305-14.076,5.859-18.448,9.553-37.351,11.824-56.548.809-6.84,1.34-13.717,2.304-20.534,1.538-10.879,6.527-15.78,17.458-16.342,5.833-.3,11.873.014,17.571,1.221,10.998,2.33,16.468,9.058,17.315,20.233.341,4.503.009,9.053.189,13.574.106,2.667-.48,6.078,2.542,7.325,3.012,1.242,5.073-1.44,6.965-3.381,5.22-5.355,9.938-11.277,15.595-16.107,7.454-6.365,15.281-12.432,23.563-17.651,8.638-5.443,18.295-8.027,28.801-6.158,13.856,2.465,22.99,10.49,28.25,23.251.737,1.788,1.355,3.805,1.316,5.702-.211,10.271-1.045,20.427-5.801,29.868-3.497,6.942-8.703,12.141-15.399,15.836-9.528,5.258-17.87,3.436-24.412-5.24-1.89-2.506-3.384-5.306-5.132-7.923-5.743-8.602-11.958-10.19-21.228-5.461-6.084,3.103-11.025,7.569-15.091,12.991-10.974,14.632-19.593,30.552-24.144,48.3-6.547,25.539-12.476,51.236-18.678,76.863-1.018,4.207-1.981,8.432-3.15,12.597-1.907,6.794-6.073,12.016-12.256,15.231-12.409,6.453-24.68,5.783-36.354-1.954-5.605-3.715-7.663-9.584-7.296-15.931.475-8.233,1.733-16.422,2.657-24.629,1.078-9.583,2.271-19.155,3.172-28.754.282-3.009,1.41-6.88-1.813-8.719-3.388-1.934-6.464.812-9.047,2.753-7.054,5.303-14.733,9.157-23.438,10.619-5.031.845-10.156,1.157-15.248,1.598-2.349.203-4.724.091-7.083.207-5.455.268-9.84,2.533-12.961,7.092-2.224,3.249-4.564,6.424-6.663,9.752-13.728,21.76-32.564,37.883-55.573,48.891-22.807,10.912-46.833,15.287-71.772,8.653-27.317-7.267-47.998-22.958-59.625-49.388-10.77-24.483-11.425-49.617-4.478-75.092,3.314-12.152,7.546-24.006,13.123-35.381,8.36-17.053,19.36-32.229,34.123-43.996,23.18-18.474,49.44-29.919,79.697-29.888,8.047.008,16.162.469,24.123,1.592,13.436,1.895,25.79,6.964,37.404,14.831m-63.034,37.12c.689-2.051,1.388-4.099,2.065-6.153.813-2.467,1.655-5.082-.317-7.269-2.21-2.452-5.063-1.478-7.734-.769-1.139.302-2.252.709-3.361,1.111-16.976,6.155-29.644,17.501-39.174,32.597-7.962,12.611-13.06,26.397-16.743,40.779-3.186,12.44-5.48,24.964-4.932,37.899.435,10.258,2.913,19.947,8.638,28.453,11.128,16.536,30.537,24.997,50.698,12.485,1.337-.829,2.668-1.672,3.955-2.576,13.712-9.64,23.521-22.509,30.703-37.477,1.261-2.628,1.99-5.553,2.672-8.41,1.219-5.112.105-9.784-3.357-13.78-2.576-2.973-5.23-5.881-7.915-8.757-8.017-8.585-12.72-18.739-15.076-30.212-2.534-12.337-2.365-24.619-.12-37.921m16.211,12.308c.204,3.923.041,7.908.685,11.758,1.541,9.216,4.649,17.954,10.242,25.513,3.738,5.052,7.58,4.545,10.234-1.179,3.481-7.508,6.46-15.199,7.283-23.577,1.064-10.836-.325-21.252-5.246-31.004-2.047-4.057-4.617-8.284-9.973-8.041-5.343.243-7.403,4.646-9.194,8.886-.914,2.165-1.643,4.44-2.163,6.732-.739,3.256-1.207,6.574-1.867,10.912Z"/>
  <path class="cls-1" d="m1080.549,786.444c2.342-5.285,6.354-7.598,11.421-7.683,10.61-.179,21.25-.471,31.83.131,8.853.503,12.132,4.628,10.477,13.373-2.448,12.939-5.708,25.73-8.84,38.531-1.729,7.069-3.949,14.017-5.848,21.047-.717,2.653-1.367,5.358-1.669,8.082-.594,5.37,1.523,8.238,6.749,9.295,1.911.387,3.91.459,5.87.466,12.403.043,24.807-.011,37.21.064,2.54.015,5.144.163,7.602.743,4.109.97,5.867,3.368,6.158,7.561.858,12.394-8.094,23.36-20.392,24.73-3.702.412-7.466.363-11.202.363-9.056.002-18.113-.168-27.169-.125-10.509.05-13.519,2.301-15.947,12.727-3.079,13.223-6.088,26.476-8.576,39.818-3.388,18.173-6.619,36.393-9.163,54.698-.988,7.11-.585,14.594.356,21.754,1.783,13.579,10.023,20.303,23.62,20.815,12.169.459,23.443-3.07,34.177-8.054,12.404-5.76,23.177-14.063,32.554-24.069,3.094-3.302,5.743-7.077,9.109-10.055,3.477-3.077,7.264-6.213,11.481-7.947,6.031-2.481,10.336,1.376,9.096,7.772-.698,3.599-2.003,7.291-3.902,10.413-12.388,20.355-27.477,38.335-46.864,52.496-9.721,7.1-19.474,13.998-31.145,17.706-21.571,6.855-42.816,7.56-63.909-2.008-15.337-6.957-25.143-18.489-30.086-34.404-3.126-10.066-4.257-20.396-4.016-30.896.505-21.939,4.638-43.415,8.503-64.91,2.472-13.749,5.349-27.426,8.042-41.135.152-.773.3-1.547.41-2.326,1.097-7.735-1.027-10.725-8.662-11.576-5.471-.61-10.988-.798-16.48-1.238-2.543-.204-5.134-.309-7.598-.898-5.634-1.348-8.703-5.315-8.46-11.159.13-3.111.737-6.255,1.545-9.273,1.647-6.15,5.761-9.815,12.141-10.403,5.873-.541,11.78-.726,17.676-.993,2.949-.133,5.907-.041,8.858-.153,8.031-.307,11.524-2.678,13.897-10.291,3.512-11.269,6.722-22.633,9.984-33.978,3.698-12.859,7.312-25.742,11.161-39.012Z"/>
  <path class="cls-1" d="m1352.09,827.224c-3.832,4.203-13.169,11.809-17.886,14.337-11.222,6.014-21.132,10.566-34.207,10.442-10.561-.1-17.408-5.003-18.987-14.925-2.355-14.8-2.053-29.725,3.829-43.808,3.606-8.635,8.262-16.97,13.385-24.88,3.435-5.304,11.256-14.428,16.325-18.321,14.302-10.985,21.55-15.555,39.111-20.897,2.782-.647,11.353-2.103,14.988-2.401,8.619-.707,13.483,3.294,15.658,11.298,2.834,10.428.895,18.793-.201,25.818-1.632,10.458-9.485,26.917-11.021,30.177-.835,1.771-5.795,11.026-11.233,19.578-2.381,3.745-7.01,10.564-9.762,13.582Zm-27.112-48.347c-3.996,6.327-8.133,12.578-11.922,19.017-1.692,2.875-2.826,6.084-3.913,9.237-.222.643-.173,1.376.152,2.334.338.995,1.301,1.716,2.392,1.695,1.975-.039,3.972-1.083,4.476-1.613,3.704-3.896,7.586-7.685,10.844-11.91,5.363-6.954,9.758-14.596,15.016-21.623,3.694-4.938,6.962-10.144,10.239-15.346.463-.734.847-1.779.882-2.827.071-2.119-2.254-3.577-4.314-2.812-6.16,2.288-13.705,9.834-23.854,23.85Z"/>
</svg>